<?xml version="1.0" encoding="UTF-8"?>
<svg version="1.1" xmlns="http://www.w3.org/2000/svg" width="500" height="500">
<path d="M0 0 C2.9719385 1.12451727 5.33440687 2.22293791 8 4 C8 4.66 8 5.32 8 6 C9.98 6.66 11.96 7.32 14 8 C14 8.66 14 9.32 14 10 C14.78375 10.309375 15.5675 10.61875 16.375 10.9375 C19 12 19 12 21 13 C21 13.66 21 14.32 21 15 C21.72832031 15.26498291 22.45664062 15.52996582 23.20703125 15.80297852 C26.00606178 17.00259798 28.21376508 18.3857188 30.6875 20.15234375 C31.55117188 20.76400391 32.41484375 21.37566406 33.3046875 22.00585938 C34.19414062 22.64330078 35.08359375 23.28074219 36 23.9375 C37.76975498 25.19812982 39.54055611 26.45729253 41.3125 27.71484375 C42.48232422 28.55196899 42.48232422 28.55196899 43.67578125 29.40600586 C46.03226781 31.07118635 46.03226781 31.07118635 48.79296875 32.58032227 C49.52128906 33.04881592 50.24960937 33.51730957 51 34 C51 34.66 51 35.32 51 36 C52.32 36.33 53.64 36.66 55 37 C55 37.66 55 38.32 55 39 C55.99 39 56.98 39 58 39 C57.98118711 39.6027774 57.96237423 40.20555479 57.94299126 40.82659817 C57.49201064 55.56899684 57.18843365 70.30907789 57.04403496 85.05736446 C56.97072167 92.19110829 56.84895734 99.31768711 56.61132812 106.44799805 C53.54978848 137.59022468 53.54978848 137.59022468 63.19067955 165.03412914 C69.45295814 170.7987403 76.85927618 173.77534257 85 176 C85.66 176.33 86.32 176.66 87 177 C87 177.66 87 178.32 87 179 C87.99 179 88.98 179 90 179 C90 179.66 90 180.32 90 181 C90.61875 181.144375 91.2375 181.28875 91.875 181.4375 C94 182 94 182 96 183 C96 183.66 96 184.32 96 185 C96.54398437 185.0928125 97.08796875 185.185625 97.6484375 185.28125 C100.68814673 186.21033056 102.97246324 187.75547448 105.625 189.5 C109.22891073 191.89568822 109.22891073 191.89568822 113 194 C113.33 154.07 113.66 114.14 114 73 C116.66666667 74.33333333 119.33333333 75.66666667 122 77 C122 77.66 122 78.32 122 79 C123.98 79.495 123.98 79.495 126 80 C126 80.66 126 81.32 126 82 C127.051875 82.37125 127.051875 82.37125 128.125 82.75 C131.39514548 84.17180238 134.141122 85.87246288 137 88 C137 88.66 137 89.32 137 90 C137.7425 90.268125 138.485 90.53625 139.25 90.8125 C141.89061949 91.95276751 143.85552844 93.09380306 146 95 C146 95.66 146 96.32 146 97 C146.70253906 97.23976563 147.40507812 97.47953125 148.12890625 97.7265625 C151.48175084 99.21367452 154.03949783 101.12970102 156.9375 103.375 C160.0263189 105.75837252 163.08451808 108.07739104 166.37890625 110.1640625 C167.24386719 110.76992187 168.10882813 111.37578125 169 112 C169 112.66 169 113.32 169 114 C169.99 114 170.98 114 172 114 C172 191.22 172 268.44 172 348 C169.69 348.66 167.38 349.32 165 350 C165 350.66 165 351.32 165 352 C163.35546875 353.2890625 163.35546875 353.2890625 161.1875 354.625 C160.47980469 355.07101562 159.77210938 355.51703125 159.04296875 355.9765625 C157 357 157 357 154 357 C154 357.66 154 358.32 154 359 C151 361 151 361 148 361 C148 361.66 148 362.32 148 363 C145.67491712 364.58875572 143.35165542 366.05741851 140.9375 367.5 C134.41818902 371.46521022 128.04515656 375.58443604 121.78686523 379.95117188 C117.32470153 383 117.32470153 383 114 383 C114 344.06 114 305.12 114 265 C112.68 264.67 111.36 264.34 110 264 C110 263.34 110 262.68 110 262 C109.47535156 261.9278125 108.95070313 261.855625 108.41015625 261.78125 C104.98594037 260.67129348 102.31933124 258.59410909 99.4375 256.5 C95.00051757 253.24656019 95.00051757 253.24656019 90 251 C90 250.34 90 249.68 90 249 C88.02 248.34 86.04 247.68 84 247 C84 246.34 84 245.68 84 245 C83.175 244.79375 82.35 244.5875 81.5 244.375 C77.66538272 242.86854321 75.01316586 240.90608449 71.83203125 238.33984375 C69.93345432 236.80849826 69.93345432 236.80849826 67 236 C67 235.34 67 234.68 67 234 C66.01 234 65.02 234 64 234 C64 233.34 64 232.68 64 232 C61.03 231.01 61.03 231.01 58 230 C58.01474869 230.99060614 58.02949738 231.98121227 58.04469299 233.00183678 C58.40012581 257.12240068 58.66292012 281.2426245 58.82899475 305.36525536 C58.91144662 317.03107226 59.02381687 328.69515785 59.20703125 340.35986328 C59.36667608 350.52882791 59.46976856 360.6965388 59.50541592 370.86672175 C59.52625149 376.25095719 59.57507717 381.63160663 59.69168091 387.0146904 C59.80065406 392.08680313 59.83372381 397.15387096 59.8097229 402.22704315 C59.81410972 404.08401349 59.84575019 405.94115971 59.9072876 407.79711533 C60.33768064 421.45243249 60.33768064 421.45243249 56.3747673 425.77115297 C52.09269186 429.25486487 45.67274935 434 40 434 C40 434.66 40 435.32 40 436 C38.54462432 436.83848804 37.08559627 437.67063934 35.625 438.5 C34.81289063 438.9640625 34.00078125 439.428125 33.1640625 439.90625 C31 441 31 441 29 441 C29 441.66 29 442.32 29 443 C28.41992188 443.31453125 27.83984375 443.6290625 27.2421875 443.953125 C23.59002839 445.95397785 19.98877999 447.94046001 16.5625 450.3125 C14 452 14 452 12 452 C12 452.66 12 453.32 12 454 C10.56429734 454.81567174 9.12636566 455.62742093 7.6875 456.4375 C6.88699219 456.88996094 6.08648437 457.34242188 5.26171875 457.80859375 C3 459 3 459 0 460 C-0.21051192 427.95846037 -0.39517863 395.91679374 -0.5625 363.875 C-0.56888284 362.65778857 -0.57526568 361.44057714 -0.58184195 360.18648052 C-0.9945997 281.16292035 -1.01592595 202.14796843 -0.5625 105.125 C-0.55603611 103.78402552 -0.54957354 102.44305103 -0.54311228 101.10207653 C-0.38049661 67.40128041 -0.20035105 33.70059277 0 0 Z " fill="#7A6202" transform="translate(257,20)"/>
<path d="M0 0 C0.18683518 24.79953108 0.32793263 49.59895678 0.41449738 74.39904976 C0.45575834 85.91405887 0.51201672 97.42863084 0.60351562 108.94335938 C0.68322309 118.97896738 0.7348586 129.01425884 0.75270796 139.05017459 C0.76314294 144.36491445 0.78768538 149.67874867 0.84584045 154.99319839 C0.90013486 159.99536234 0.91689432 164.99624758 0.90486145 169.99867821 C0.90706272 171.83454399 0.92298256 173.67045242 0.9536438 175.50606346 C1.1734478 189.3437161 1.1734478 189.3437161 -1.73658752 193.45113754 C-4.90009067 195.95393373 -6.94050386 197 -11 197 C-11 197.66 -11 198.32 -11 199 C-13.07448871 200.42323268 -15.1511836 201.7184553 -17.3125 203 C-25.39340996 207.9122977 -33.26871081 213.11464799 -41.125 218.375 C-42.01271591 218.96885498 -42.01271591 218.96885498 -42.91836548 219.57470703 C-45.64483461 221.39880481 -48.37014498 223.22460074 -51.09423828 225.05224609 C-54.05949615 227.03988071 -57.02898826 229.02098067 -60 231 C-58.3990869 232.15037471 -56.79414775 233.29514816 -55.1875 234.4375 C-53.84751953 235.39462891 -53.84751953 235.39462891 -52.48046875 236.37109375 C-50.02865666 238.13290268 -50.02865666 238.13290268 -47 239 C-47 239.66 -47 240.32 -47 241 C-46.11957031 241.25136719 -45.23914063 241.50273437 -44.33203125 241.76171875 C-40.88106498 243.04419977 -38.58620095 244.56654356 -35.6875 246.8125 C-30.98957527 250.34559682 -26.22435721 253.31687333 -21 256 C-21 256.66 -21 257.32 -21 258 C-20.00226563 258.33837891 -20.00226563 258.33837891 -18.984375 258.68359375 C-15.09746108 260.39810945 -11.7531272 262.67645864 -8.25 265.0625 C-7.56550781 265.52205078 -6.88101563 265.98160156 -6.17578125 266.45507812 C-1.16919168 269.83080832 -1.16919168 269.83080832 0 271 C0.09769053 273.4411002 0.12996385 275.85387292 0.12025452 278.29542542 C0.12153615 279.45439415 0.12153615 279.45439415 0.12284368 280.63677639 C0.12450082 283.24558554 0.11897331 285.85433146 0.11352539 288.46313477 C0.11324354 290.32532754 0.1134012 292.18752043 0.1139679 294.04971313 C0.11425597 299.12181586 0.10835771 304.19389515 0.10139394 309.2659924 C0.09516197 314.56046001 0.09455673 319.8549281 0.09336853 325.1493988 C0.09025475 335.18271424 0.08204073 345.21601885 0.07201904 355.24932951 C0.06085935 366.66872285 0.05534782 378.08811669 0.05032361 389.50751412 C0.03985815 413.00501543 0.02225781 436.50250711 0 460 C-3.96 458.02 -3.96 458.02 -8 456 C-8 455.34 -8 454.68 -8 454 C-9.32644531 453.61714844 -9.32644531 453.61714844 -10.6796875 453.2265625 C-14.05049741 451.98134566 -16.28731344 450.55316308 -19.125 448.375 C-27.0876691 442.40842234 -35.25782541 436.76845887 -44 432 C-44 431.34 -44 430.68 -44 430 C-44.99 430 -45.98 430 -47 430 C-47 429.34 -47 428.68 -47 428 C-48.98 427.34 -50.96 426.68 -53 426 C-53 425.34 -53 424.68 -53 424 C-54.65 423.34 -56.3 422.68 -58 422 C-58.33 382.07 -58.66 342.14 -59 301 C-60.32 300.67 -61.64 300.34 -63 300 C-65.42293666 298.54511887 -67.77583726 297.06449395 -70.125 295.5 C-74.45794084 292.5723807 -74.45794084 292.5723807 -79 290 C-79 289.34 -79 288.68 -79 288 C-79.88042969 287.74863281 -80.76085937 287.49726563 -81.66796875 287.23828125 C-85.11893502 285.95580023 -87.41379905 284.43345644 -90.3125 282.1875 C-95.01042473 278.65440318 -99.77564279 275.68312667 -105 273 C-105 272.34 -105 271.68 -105 271 C-105.763125 270.71125 -106.52625 270.4225 -107.3125 270.125 C-110 269 -110 269 -113 267 C-113.33 305.94 -113.66 344.88 -114 385 C-121.17391304 382.60869565 -121.17391304 382.60869565 -124 380 C-124 379.34 -124 378.68 -124 378 C-124.556875 377.896875 -125.11375 377.79375 -125.6875 377.6875 C-128.4769101 376.85821592 -130.6139064 375.65700944 -133 374 C-133 373.34 -133 372.68 -133 372 C-134.98 371.34 -136.96 370.68 -139 370 C-139 369.34 -139 368.68 -139 368 C-140.175625 367.5359375 -140.175625 367.5359375 -141.375 367.0625 C-144 366 -144 366 -146 365 C-146 364.34 -146 363.68 -146 363 C-147.98 362.34 -149.96 361.68 -152 361 C-152 360.34 -152 359.68 -152 359 C-152.99 358.6596875 -152.99 358.6596875 -154 358.3125 C-157.88658628 356.6121185 -161.63679817 354.60376916 -165 352 C-165 351.34 -165 350.68 -165 350 C-167.31 349.34 -169.62 348.68 -172 348 C-172 270.45 -172 192.9 -172 113 C-169.36 111.68 -166.72 110.36 -164 109 C-161.58973755 107.37698599 -161.58973755 107.37698599 -159.625 105.75 C-156.20792079 103 -156.20792079 103 -154 103 C-154 102.34 -154 101.68 -154 101 C-151.03 100.01 -151.03 100.01 -148 99 C-148 98.34 -148 97.68 -148 97 C-146.01220703 95.39599609 -146.01220703 95.39599609 -143.2578125 93.5234375 C-142.27425781 92.853125 -141.29070312 92.1828125 -140.27734375 91.4921875 C-139.23707031 90.79351562 -138.19679687 90.09484375 -137.125 89.375 C-136.09246094 88.66859375 -135.05992187 87.9621875 -133.99609375 87.234375 C-126.2657909 82 -126.2657909 82 -124 82 C-124 81.34 -124 80.68 -124 80 C-122.3203125 78.7109375 -122.3203125 78.7109375 -120.125 77.375 C-119.40570313 76.92898437 -118.68640625 76.48296875 -117.9453125 76.0234375 C-116 75 -116 75 -114 75 C-113.67 114.27 -113.34 153.54 -113 194 C-105.84052117 189.73717904 -105.84052117 189.73717904 -99 185 C-98.01 185 -97.02 185 -96 185 C-96 184.34 -96 183.68 -96 183 C-94.02 182.34 -92.04 181.68 -90 181 C-90 180.34 -90 179.68 -90 179 C-82.57142857 174.57142857 -82.57142857 174.57142857 -79 174 C-79 173.34 -79 172.68 -79 172 C-72.25 168 -72.25 168 -70 168 C-70 167.34 -70 166.68 -70 166 C-67.84765625 164.52734375 -67.84765625 164.52734375 -65.0625 162.9375 C-61.84169663 161.22531095 -61.84169663 161.22531095 -59 159 C-58.91372357 157.45917769 -58.89754509 155.91437814 -58.90907288 154.3711853 C-58.91373566 153.37022827 -58.91839844 152.36927124 -58.92320251 151.33798218 C-58.9331575 150.23048615 -58.94311249 149.12299011 -58.95336914 147.98193359 C-58.96614873 145.57807583 -58.97858879 143.17421625 -58.99073792 140.77035522 C-58.99865419 139.48809429 -59.00657047 138.20583336 -59.01472664 136.88471603 C-59.03523179 132.88369883 -59.043123 128.88280235 -59.04405212 124.88174438 C-59.04432477 123.86934962 -59.04432477 123.86934962 -59.04460293 122.83650243 C-59.04505301 120.05031946 -59.04497041 117.26413666 -59.0447675 114.47795367 C-59.04503205 106.56584933 -59.06168068 98.65453603 -59.12670898 90.74267578 C-59.17821452 84.46213568 -59.19431739 78.18262067 -59.16924757 71.90190375 C-59.15731754 68.57799495 -59.16853436 65.25676824 -59.21193123 61.93305588 C-59.25786189 58.21851786 -59.24168832 54.50902103 -59.21118164 50.79443359 C-59.23935471 49.69908295 -59.26752777 48.6037323 -59.29655457 47.47518921 C-59.20229218 42.84354728 -59.09196637 40.11439194 -55.76312065 36.71718216 C-49.2127668 32 -49.2127668 32 -46 32 C-46 31.34 -46 30.68 -46 30 C-43.03 29.01 -43.03 29.01 -40 28 C-40 27.34 -40 26.68 -40 26 C-37.6640625 24.2734375 -37.6640625 24.2734375 -34.625 22.375 C-33.62726563 21.74335937 -32.62953125 21.11171875 -31.6015625 20.4609375 C-29 19 -29 19 -27 19 C-27 18.34 -27 17.68 -27 17 C-25.02 16.34 -23.04 15.68 -21 15 C-21 14.34 -21 13.68 -21 13 C-18.6640625 11.2734375 -18.6640625 11.2734375 -15.625 9.375 C-14.12839844 8.42753906 -14.12839844 8.42753906 -12.6015625 7.4609375 C-10 6 -10 6 -8 6 C-8 5.34 -8 4.68 -8 4 C-1.125 0 -1.125 0 0 0 Z " fill="#050F46" transform="translate(243,20)"/>
<path d="M0 0 C2.9719385 1.12451727 5.33440687 2.22293791 8 4 C8 4.66 8 5.32 8 6 C9.98 6.66 11.96 7.32 14 8 C14 8.66 14 9.32 14 10 C13.37351562 10.06058594 12.74703125 10.12117188 12.1015625 10.18359375 C11.28429687 10.26738281 10.46703125 10.35117187 9.625 10.4375 C8.81289063 10.51871094 8.00078125 10.59992187 7.1640625 10.68359375 C4.95727195 10.89090114 4.95727195 10.89090114 3 12 C2.67 158.85 2.34 305.7 2 457 C2.99 457.33 3.98 457.66 5 458 C3.35 458.66 1.7 459.32 0 460 C-0.21051192 427.95846037 -0.39517863 395.91679374 -0.5625 363.875 C-0.56888284 362.65778857 -0.57526568 361.44057714 -0.58184195 360.18648052 C-0.9945997 281.16292035 -1.01592595 202.14796843 -0.5625 105.125 C-0.55603611 103.78402552 -0.54957354 102.44305103 -0.54311228 101.10207653 C-0.38049661 67.40128041 -0.20035105 33.70059277 0 0 Z " fill="#73610D" transform="translate(257,20)"/>
<path d="M0 0 C3.35594194 1.2632842 5.63290296 2.25915079 8 5 C5.69 5 3.38 5 1 5 C1.33 155.15 1.66 305.3 2 460 C1.34 460 0.68 460 0 460 C-0.21051192 427.95846037 -0.39517863 395.91679374 -0.5625 363.875 C-0.56888284 362.65778857 -0.57526568 361.44057714 -0.58184195 360.18648052 C-0.9945997 281.16292035 -1.01592595 202.14796843 -0.5625 105.125 C-0.55603611 103.78402552 -0.54957354 102.44305103 -0.54311228 101.10207653 C-0.38049661 67.40128041 -0.20035105 33.70059277 0 0 Z " fill="#837842" transform="translate(257,20)"/>
<path d="M0 0 C2.66666667 1.33333333 5.33333333 2.66666667 8 4 C8 4.66 8 5.32 8 6 C9.32 6.33 10.64 6.66 12 7 C11.67 7.66 11.34 8.32 11 9 C9.68 8.67 8.36 8.34 7 8 C7 7.34 7 6.68 7 6 C4.525 5.01 4.525 5.01 2 4 C2.00184359 4.59083563 2.00368717 5.18167126 2.00558662 5.790411 C2.04971602 20.15318843 2.08283235 34.51595983 2.10362434 48.8787899 C2.11394592 55.82449144 2.12802301 62.77014778 2.15087891 69.71582031 C2.17290879 76.41365814 2.1845554 83.11143922 2.18975449 89.80931473 C2.1934615 92.36988694 2.20069992 94.93045647 2.21146011 97.49100876 C2.22589196 101.06616615 2.22798143 104.64112696 2.22705078 108.21630859 C2.23783661 109.81852516 2.23783661 109.81852516 2.24884033 111.45310974 C2.246091 112.42348679 2.24334167 113.39386383 2.24050903 114.39364624 C2.24235262 115.2398522 2.24419621 116.08605816 2.24609566 116.95790672 C2 119 2 119 0 121 C0 81.07 0 41.14 0 0 Z " fill="#73630F" transform="translate(371,93)"/>
<path d="M0 0 C0.33 0 0.66 0 1 0 C1.00423194 0.61660429 1.00846388 1.23320858 1.01282406 1.86849785 C1.1160338 16.85722554 1.22465692 31.84590331 1.33933926 46.83454704 C1.3946671 54.08287813 1.44814837 61.33121413 1.49731445 68.57958984 C1.54016167 74.89571338 1.58644101 81.21180074 1.63687855 87.52786839 C1.66347517 90.87357709 1.68832812 94.21927863 1.70907402 97.56502914 C1.73306928 101.29584531 1.76313049 105.02656538 1.79467773 108.75732422 C1.8004332 109.87222229 1.80618866 110.98712036 1.81211853 112.13580322 C1.82190735 113.14825104 1.83169617 114.16069885 1.84178162 115.2038269 C1.84823417 116.08690458 1.85468672 116.96998226 1.8613348 117.87981987 C1.86595561 120.05515044 1.86595561 120.05515044 3 122 C1.68 122 0.36 122 -1 122 C-1.02332931 106.24083256 -1.04097933 90.48166976 -1.05181217 74.72248936 C-1.05697506 67.40572598 -1.06401762 60.0889733 -1.07543945 52.7722168 C-1.08538651 46.39716982 -1.09185348 40.02213059 -1.09408849 33.64707607 C-1.09539557 30.26951986 -1.09848119 26.89198584 -1.10573006 23.51443672 C-1.11293613 19.74992657 -1.11399113 15.98546315 -1.11352539 12.22094727 C-1.1189183 10.52918114 -1.1189183 10.52918114 -1.12442017 8.80323792 C-1.1230455 7.78375061 -1.12167084 6.76426331 -1.12025452 5.71388245 C-1.12117631 4.82250863 -1.1220981 3.93113482 -1.12304783 3.01274967 C-1 1 -1 1 0 0 Z " fill="#988A50" transform="translate(314,59)"/>
<path d="M0 0 C0.99 0.495 0.99 0.495 2 1 C2 38.62 2 76.24 2 115 C3.32 115.33 4.64 115.66 6 116 C3 118 3 118 0 118 C0 79.06 0 40.12 0 0 Z " fill="#756620" transform="translate(371,285)"/>
<path d="M0 0 C0.33 0 0.66 0 1 0 C1 62.37 1 124.74 1 189 C-0.98 188.01 -2.96 187.02 -5 186 C-4.350704 185.32912511 -3.701408 184.65825022 -3.03243637 183.96704578 C-0.58187668 180.389604 -0.43396404 177.70913505 -0.48101807 173.52726746 C-0.47351681 172.78387235 -0.46601556 172.04047725 -0.458287 171.27455503 C-0.43801881 168.78846454 -0.44611041 166.30328685 -0.45410156 163.81713867 C-0.44536605 162.03316343 -0.43488034 160.24919603 -0.42277527 158.46524048 C-0.39489198 153.62471961 -0.3915111 148.78445411 -0.39249516 143.94386458 C-0.38936806 138.88425574 -0.36375409 133.82476225 -0.34051514 128.76521301 C-0.29993603 119.18536191 -0.27960992 109.60557891 -0.26654124 100.02565509 C-0.25067769 89.11879312 -0.21226476 78.21204716 -0.17194796 67.30525243 C-0.08952284 44.87020721 -0.03544703 22.43516515 0 0 Z " fill="#303958" transform="translate(242,291)"/>
<path d="M0 0 C0 63.03 0 126.06 0 191 C-0.66 191.33 -1.32 191.66 -2 192 C-2 129.96 -2 67.92 -2 4 C-3.32 3.67 -4.64 3.34 -6 3 C-1.125 0 -1.125 0 0 0 Z " fill="#313B59" transform="translate(243,20)"/>
<path d="M0 0 C0.99 0.33 1.98 0.66 3 1 C2.67 1.66 2.34 2.32 2 3 C1.89572677 4.57084171 1.8534799 6.14599006 1.84178162 7.72024536 C1.8319928 8.71586487 1.82220398 9.71148437 1.81211853 10.73727417 C1.80636307 11.83347076 1.8006076 12.92966736 1.79467773 14.05908203 C1.78477814 15.21029541 1.77487854 16.36150879 1.76467896 17.54760742 C1.73299267 21.36765458 1.70827835 25.1877142 1.68359375 29.0078125 C1.66303038 31.65054657 1.64203408 34.29327731 1.62062073 36.93600464 C1.57067591 43.19037258 1.52574374 49.44476616 1.48259836 55.6991843 C1.43324126 62.81883547 1.37831748 69.93844026 1.32291877 77.05804658 C1.20907128 91.70532048 1.10223827 106.35264053 1 121 C0.67 121 0.34 121 0 121 C0 81.07 0 41.14 0 0 Z " fill="#786B33" transform="translate(371,93)"/>
<path d="M0 0 C5.625 2.25 5.625 2.25 8 5 C5.69 5 3.38 5 1 5 C1 17.87 1 30.74 1 44 C0.67 44 0.34 44 0 44 C0 29.48 0 14.96 0 0 Z " fill="#837641" transform="translate(257,20)"/>
<path d="M0 0 C1.67180274 0.94934513 3.33733936 1.90973313 5 2.875 C5.928125 3.40867187 6.85625 3.94234375 7.8125 4.4921875 C8.8953125 5.23855469 8.8953125 5.23855469 10 6 C10 6.66 10 7.32 10 8 C10.7425 8.268125 11.485 8.53625 12.25 8.8125 C14.89061949 9.95276751 16.85552844 11.09380306 19 13 C19 13.66 19 14.32 19 15 C13.92715484 14.55239601 11.71222918 12.22802538 8 9 C7.01 8.67 6.02 8.34 5 8 C0 2.53488372 0 2.53488372 0 0 Z " fill="#978848" transform="translate(384,102)"/>
<path d="M0 0 C0 13.2 0 26.4 0 40 C-0.33 40 -0.66 40 -1 40 C-1.33 28.12 -1.66 16.24 -2 4 C-3.32 3.67 -4.64 3.34 -6 3 C-1.125 0 -1.125 0 0 0 Z " fill="#303958" transform="translate(243,20)"/>
<path d="M0 0 C4.07279689 0.38422612 7.46574118 0.87944471 11 3 C11 3.66 11 4.32 11 5 C10.07767578 5.09087891 10.07767578 5.09087891 9.13671875 5.18359375 C8.32847656 5.26738281 7.52023437 5.35117187 6.6875 5.4375 C5.88699219 5.51871094 5.08648437 5.59992187 4.26171875 5.68359375 C1.83912821 5.95265693 1.83912821 5.95265693 -1 7 C-1.04254356 5.00045254 -1.04080783 2.99958364 -1 1 C-0.67 0.67 -0.34 0.34 0 0 Z " fill="#846F1C" transform="translate(260,25)"/>
<path d="M0 0 C1.65 0 3.3 0 5 0 C0.91266859 3.44868587 -3.43805907 6.23793154 -8 9 C-8 7.35 -8 5.7 -8 4 C-6.35 4 -4.7 4 -3 4 C-3 3.34 -3 2.68 -3 2 C-2.01 2 -1.02 2 0 2 C0 1.34 0 0.68 0 0 Z " fill="#91833E" transform="translate(386,391)"/>
<path d="M0 0 C0.33 0 0.66 0 1 0 C1 5.28 1 10.56 1 16 C-0.98 15.01 -2.96 14.02 -5 13 C-4.360625 12.34 -3.72125 11.68 -3.0625 11 C-0.41087498 7.14309088 -0.31332879 4.62159967 0 0 Z " fill="#3C4161" transform="translate(242,464)"/>
<path d="M0 0 C2.31 0.33 4.62 0.66 7 1 C2.69230769 4.93846154 2.69230769 4.93846154 -0.8125 5.25 C-1.8953125 5.12625 -1.8953125 5.12625 -3 5 C-3.33 3.68 -3.66 2.36 -4 1 C-3.01 1.33 -2.02 1.66 -1 2 C-0.67 1.34 -0.34 0.68 0 0 Z " fill="#846F1D" transform="translate(390,386)"/>
<path d="M0 0 C0.33 0 0.66 0 1 0 C1 2.97 1 5.94 1 9 C2.65 8.67 4.3 8.34 6 8 C6 8.66 6 9.32 6 10 C6.99 10.33 7.98 10.66 9 11 C9 11.99 9 12.98 9 14 C8.34 14 7.68 14 7 14 C7 13.34 7 12.68 7 12 C4.69 11.34 2.38 10.68 0 10 C0 6.7 0 3.4 0 0 Z " fill="#575C7E" transform="translate(71,358)"/>
<path d="M0 0 C-0.33 1.32 -0.66 2.64 -1 4 C-1.99 4 -2.98 4 -4 4 C-4.99 5.485 -4.99 5.485 -6 7 C-9.125 7.6875 -9.125 7.6875 -12 8 C-4.57142857 0 -4.57142857 0 0 0 Z " fill="#4F5477" transform="translate(146,205)"/>
<path d="M0 0 C2.97 1.65 5.94 3.3 9 5 C8.67 5.66 8.34 6.32 8 7 C3.25 6.125 3.25 6.125 1 5 C0.67 3.35 0.34 1.7 0 0 Z " fill="#8F7B33" transform="translate(330,189)"/>
<path d="M0 0 C1.65 0 3.3 0 5 0 C5.33 0.99 5.66 1.98 6 3 C7.32 3 8.64 3 10 3 C10.33 3.66 10.66 4.32 11 5 C11.99 5.66 12.98 6.32 14 7 C8.95749572 7 7.22094347 5.59750368 3 3 C3 2.34 3 1.68 3 1 C2.01 0.67 1.02 0.34 0 0 Z " fill="#434B6A" transform="translate(196,449)"/>
<path d="M0 0 C0 1.98 0 3.96 0 6 C-0.66 5.01 -1.32 4.02 -2 3 C-2.33 3.66 -2.66 4.32 -3 5 C-6.0625 5.625 -6.0625 5.625 -9 6 C-9 5.34 -9 4.68 -9 4 C-3.70588235 0 -3.70588235 0 0 0 Z " fill="#363C60" transform="translate(128,96)"/>
<path d="M0 0 C0.66 0.33 1.32 0.66 2 1 C1.67 2.32 1.34 3.64 1 5 C-0.65 4.67 -2.3 4.34 -4 4 C-3.34 3.67 -2.68 3.34 -2 3 C-2 2.34 -2 1.68 -2 1 C-1.34 0.67 -0.68 0.34 0 0 Z M-4 6 C-3.34 6 -2.68 6 -2 6 C-2 6.99 -2 7.98 -2 9 C-3.32 9.33 -4.64 9.66 -6 10 C-6 9.34 -6 8.68 -6 8 C-5.34 8 -4.68 8 -4 8 C-4 7.34 -4 6.68 -4 6 Z " fill="#272F5F" transform="translate(205,45)"/>
<path d="M0 0 C1.98 0.99 3.96 1.98 6 3 C6 3.66 6 4.32 6 5 C6.99 5.33 7.98 5.66 9 6 C6 7 6 7 3.375 6.375 C1 5 1 5 0.1875 2.375 C0.125625 1.59125 0.06375 0.8075 0 0 Z " fill="#938847" transform="translate(272,30)"/>
<path d="M0 0 C1.32 0.33 2.64 0.66 4 1 C4 1.66 4 2.32 4 3 C0.04 4.98 0.04 4.98 -4 7 C-4 5.68 -4 4.36 -4 3 C-3.01 2.67 -2.02 2.34 -1 2 C-0.67 1.34 -0.34 0.68 0 0 Z " fill="#998A4D" transform="translate(293,453)"/>
<path d="M0 0 C0.99 0.33 1.98 0.66 3 1 C3 1.66 3 2.32 3 3 C0.03 4.65 -2.94 6.3 -6 8 C-6 7.34 -6 6.68 -6 6 C-5.34 6 -4.68 6 -4 6 C-4 5.34 -4 4.68 -4 4 C-3.34 4 -2.68 4 -2 4 C-2 3.01 -2 2.02 -2 1 C-1.34 0.67 -0.68 0.34 0 0 Z " fill="#333A60" transform="translate(204,232)"/>
<path d="M0 0 C0.86625 0.556875 0.86625 0.556875 1.75 1.125 C1.75 1.785 1.75 2.445 1.75 3.125 C0.1 3.785 -1.55 4.445 -3.25 5.125 C-4.24 3.805 -5.23 2.485 -6.25 1.125 C-2.80384615 -1.09038462 -2.80384615 -1.09038462 0 0 Z " fill="#25305F" transform="translate(153.25,201.875)"/>
<path d="M0 0 C1.98 0 3.96 0 6 0 C6.33 1.32 6.66 2.64 7 4 C7.66 4 8.32 4 9 4 C8.67 4.66 8.34 5.32 8 6 C7.01 5.67 6.02 5.34 5 5 C5 4.34 5 3.68 5 3 C4.01 3 3.02 3 2 3 C2 2.34 2 1.68 2 1 C1.34 0.67 0.68 0.34 0 0 Z " fill="#988C4E" transform="translate(319,251)"/>
<path d="M0 0 C0 0.99 0 1.98 0 3 C-0.99 3 -1.98 3 -3 3 C-3.33 3.99 -3.66 4.98 -4 6 C-5.65 6 -7.3 6 -9 6 C-8.67 5.34 -8.34 4.68 -8 4 C-7.01 4 -6.02 4 -5 4 C-5 3.34 -5 2.68 -5 2 C-2 0 -2 0 0 0 Z " fill="#474F6D" transform="translate(169,190)"/>
<path d="M0 0 C0.33 0 0.66 0 1 0 C1 3.63 1 7.26 1 11 C-0.98 11.99 -0.98 11.99 -3 13 C-2.67 11.68 -2.34 10.36 -2 9 C-1.34 9 -0.68 9 0 9 C0 6.03 0 3.06 0 0 Z " fill="#7D6D28" transform="translate(313,433)"/>
<path d="M0 0 C2.25 -0.3125 2.25 -0.3125 5 0 C7.3125 2.5 7.3125 2.5 9 5 C4.98525763 5 3.18024863 3.33218233 0 1 C0 0.67 0 0.34 0 0 Z " fill="#978746" transform="translate(351,272)"/>
<path d="M0 0 C0 1.65 0 3.3 0 5 C-2.31 4.67 -4.62 4.34 -7 4 C-1.7826087 0 -1.7826087 0 0 0 Z M-3 5 C-2.34 5.66 -1.68 6.32 -1 7 C-1.66 7 -2.32 7 -3 7 C-3 6.34 -3 5.68 -3 5 Z " fill="#373C65" transform="translate(180,183)"/>
<path d="M0 0 C2.475 0.99 2.475 0.99 5 2 C5 2.66 5 3.32 5 4 C6.32 4.33 7.64 4.66 9 5 C8.67 5.66 8.34 6.32 8 7 C6.68 6.67 5.36 6.34 4 6 C4 5.34 4 4.68 4 4 C2.68 3.34 1.36 2.68 0 2 C0 1.34 0 0.68 0 0 Z " fill="#9E8F57" transform="translate(374,95)"/>
<path d="M0 0 C0.33 0.99 0.66 1.98 1 3 C1.66 3 2.32 3 3 3 C2.67 3.99 2.34 4.98 2 6 C0.02 5.01 -1.96 4.02 -4 3 C-3 1 -3 1 0 0 Z " fill="#1E234F" transform="translate(84,370)"/>
<path d="M0 0 C2.475 0.99 2.475 0.99 5 2 C5 2.66 5 3.32 5 4 C5.99 4 6.98 4 8 4 C8 4.99 8 5.98 8 7 C5.5625 6.1875 5.5625 6.1875 3 5 C2.67 4.01 2.34 3.02 2 2 C1.34 2 0.68 2 0 2 C0 1.34 0 0.68 0 0 Z " fill="#958444" transform="translate(339,195)"/>
<path d="M0 0 C0.66 0.33 1.32 0.66 2 1 C-0.25 3.5625 -0.25 3.5625 -3 6 C-5.3125 5.8125 -5.3125 5.8125 -7 5 C-5.35 4.34 -3.7 3.68 -2 3 C-2 2.34 -2 1.68 -2 1 C-1.34 0.67 -0.68 0.34 0 0 Z " fill="#545C79" transform="translate(91,120)"/>
<path d="M0 0 C3.37503669 1.1858237 5.64722731 2.27573689 8 5 C5.69 5 3.38 5 1 5 C0.67 3.35 0.34 1.7 0 0 Z " fill="#9F8F57" transform="translate(257,20)"/>
<path d="M0 0 C1.32 0.33 2.64 0.66 4 1 C1.03 2.65 -1.94 4.3 -5 6 C-4.67 4.68 -4.34 3.36 -4 2 C-2.68 2 -1.36 2 0 2 C0 1.34 0 0.68 0 0 Z " fill="#AB9E62" transform="translate(305,447)"/>
<path d="M0 0 C0 0.66 0 1.32 0 2 C-2.375 3.6875 -2.375 3.6875 -5 5 C-5.66 4.67 -6.32 4.34 -7 4 C-7 3.01 -7 2.02 -7 1 C-4.53721199 -0.231394 -2.7204945 -0.07159196 0 0 Z " fill="#948747" transform="translate(422,370)"/>
<path d="M0 0 C-1.75 4.875 -1.75 4.875 -4 6 C-4.66 5.67 -5.32 5.34 -6 5 C-6 4.34 -6 3.68 -6 3 C-5.34 3 -4.68 3 -4 3 C-4 2.34 -4 1.68 -4 1 C-2 0 -2 0 0 0 Z " fill="#33395F" transform="translate(134,213)"/>
<path d="M0 0 C0.66 0.33 1.32 0.66 2 1 C0.68 2.65 -0.64 4.3 -2 6 C-3.32 5.34 -4.64 4.68 -6 4 C-4.02 2.68 -2.04 1.36 0 0 Z " fill="#2C315A" transform="translate(117,102)"/>
<path d="M0 0 C1.98 0 3.96 0 6 0 C1.25 3.875 1.25 3.875 -1 5 C-0.67 3.35 -0.34 1.7 0 0 Z " fill="#464B6F" transform="translate(212,227)"/>
<path d="M0 0 C1.98 0.99 3.96 1.98 6 3 C6 3.66 6 4.32 6 5 C4.68 5.33 3.36 5.66 2 6 C1.34 4.02 0.68 2.04 0 0 Z " fill="#88772F" transform="translate(420,129)"/>
<path d="M0 0 C0 0.66 0 1.32 0 2 C-0.99 2 -1.98 2 -3 2 C-3.28875 2.639375 -3.5775 3.27875 -3.875 3.9375 C-5 6 -5 6 -7 7 C-7.66 6.34 -8.32 5.68 -9 5 C-7.35 4.34 -5.7 3.68 -4 3 C-4 2.34 -4 1.68 -4 1 C-2 0 -2 0 0 0 Z " fill="#4A4F73" transform="translate(220,36)"/>
<path d="M0 0 C0 2.64 0 5.28 0 8 C-0.2475 7.360625 -0.495 6.72125 -0.75 6.0625 C-1.81562433 3.81258459 -1.81562433 3.81258459 -4.125 3.25 C-5.053125 3.12625 -5.053125 3.12625 -6 3 C-1.125 0 -1.125 0 0 0 Z " fill="#5C6178" transform="translate(243,20)"/>
<path d="" fill="#FFFFFF" transform="translate(0,0)"/>
<path d="" fill="#FFFFFF" transform="translate(0,0)"/>
<path d="" fill="#FFFFFF" transform="translate(0,0)"/>
<path d="" fill="#FFFFFF" transform="translate(0,0)"/>
<path d="" fill="#FFFFFF" transform="translate(0,0)"/>
<path d="" fill="#FFFFFF" transform="translate(0,0)"/>
<path d="" fill="#FFFFFF" transform="translate(0,0)"/>
<path d="" fill="#FFFFFF" transform="translate(0,0)"/>
<path d="" fill="#FFFFFF" transform="translate(0,0)"/>
<path d="" fill="#FFFFFF" transform="translate(0,0)"/>
<path d="" fill="#FFFFFF" transform="translate(0,0)"/>
<path d="" fill="#FFFFFF" transform="translate(0,0)"/>
<path d="" fill="#FFFFFF" transform="translate(0,0)"/>
<path d="" fill="#FFFFFF" transform="translate(0,0)"/>
<path d="" fill="#FFFFFF" transform="translate(0,0)"/>
<path d="" fill="#FFFFFF" transform="translate(0,0)"/>
<path d="" fill="#FFFFFF" transform="translate(0,0)"/>
<path d="" fill="#FFFFFF" transform="translate(0,0)"/>
<path d="" fill="#FFFFFF" transform="translate(0,0)"/>
<path d="" fill="#FFFFFF" transform="translate(0,0)"/>
<path d="" fill="#FFFFFF" transform="translate(0,0)"/>
<path d="" fill="#FFFFFF" transform="translate(0,0)"/>
<path d="" fill="#FFFFFF" transform="translate(0,0)"/>
<path d="" fill="#FFFFFF" transform="translate(0,0)"/>
<path d="" fill="#FFFFFF" transform="translate(0,0)"/>
<path d="" fill="#FFFFFF" transform="translate(0,0)"/>
<path d="" fill="#FFFFFF" transform="translate(0,0)"/>
<path d="" fill="#FFFFFF" transform="translate(0,0)"/>
<path d="" fill="#FFFFFF" transform="translate(0,0)"/>
<path d="" fill="#FFFFFF" transform="translate(0,0)"/>
<path d="" fill="#FFFFFF" transform="translate(0,0)"/>
<path d="" fill="#FFFFFF" transform="translate(0,0)"/>
<path d="" fill="#FFFFFF" transform="translate(0,0)"/>
<path d="" fill="#FFFFFF" transform="translate(0,0)"/>
<path d="" fill="#FFFFFF" transform="translate(0,0)"/>
<path d="" fill="#FFFFFF" transform="translate(0,0)"/>
<path d="" fill="#FFFFFF" transform="translate(0,0)"/>
<path d="" fill="#FFFFFF" transform="translate(0,0)"/>
<path d="" fill="#FFFFFF" transform="translate(0,0)"/>
<path d="" fill="#FFFFFF" transform="translate(0,0)"/>
<path d="" fill="#FFFFFF" transform="translate(0,0)"/>
<path d="" fill="#FFFFFF" transform="translate(0,0)"/>
<path d="" fill="#FFFFFF" transform="translate(0,0)"/>
<path d="" fill="#FFFFFF" transform="translate(0,0)"/>
<path d="" fill="#FFFFFF" transform="translate(0,0)"/>
<path d="" fill="#FFFFFF" transform="translate(0,0)"/>
<path d="" fill="#FFFFFF" transform="translate(0,0)"/>
<path d="" fill="#FFFFFF" transform="translate(0,0)"/>
<path d="" fill="#FFFFFF" transform="translate(0,0)"/>
<path d="" fill="#FFFFFF" transform="translate(0,0)"/>
<path d="" fill="#FFFFFF" transform="translate(0,0)"/>
<path d="" fill="#FFFFFF" transform="translate(0,0)"/>
<path d="" fill="#FFFFFF" transform="translate(0,0)"/>
<path d="" fill="#FFFFFF" transform="translate(0,0)"/>
<path d="" fill="#FFFFFF" transform="translate(0,0)"/>
<path d="" fill="#FFFFFF" transform="translate(0,0)"/>
<path d="" fill="#FFFFFF" transform="translate(0,0)"/>
<path d="" fill="#FFFFFF" transform="translate(0,0)"/>
<path d="" fill="#FFFFFF" transform="translate(0,0)"/>
</svg>
