<?xml version="1.0" encoding="UTF-8"?>
<svg version="1.1" xmlns="http://www.w3.org/2000/svg" width="2000" height="2000">
<path d="M0 0 C660 0 1320 0 2000 0 C2000 660 2000 1320 2000 2000 C1340 2000 680 2000 0 2000 C0 1340 0 680 0 0 Z " fill="#FEFEFE" transform="translate(0,0)"/>
<path d="M0 0 C5.63392268 3.12995704 10.59915654 5.97464993 15.625 9.8125 C22.0516058 14.61844711 28.59141223 19.24227134 35.1875 23.8125 C36.17161865 24.49465576 37.1557373 25.17681152 38.16967773 25.87963867 C40.15461701 27.25512549 42.13972343 28.63037115 44.125 30.00537109 C48.48814191 33.032449 52.83864741 36.07744334 57.1875 39.125 C57.99832031 39.69307373 58.80914063 40.26114746 59.64453125 40.84643555 C61.27479393 41.98869197 62.90500244 43.13102571 64.53515625 44.2734375 C67.05382087 46.0377002 69.57361928 47.80033226 72.09375 49.5625 C80.60049615 55.51144426 89.09707332 61.47407914 97.57373047 67.46582031 C106.36140404 73.67394597 115.18228559 79.83465946 124 86 C133.7814253 92.8391666 143.56145954 99.68004579 153.3125 106.5625 C153.98756592 107.03896973 154.66263184 107.51543945 155.3581543 108.00634766 C155.99922119 108.45929199 156.64028809 108.91223633 157.30078125 109.37890625 C157.91518066 109.81219238 158.52958008 110.24547852 159.16259766 110.69189453 C160.42405061 111.58996321 161.67862439 112.49774959 162.92724609 113.41357422 C165.60303281 115.36946857 167.83414718 116.94471573 171 118 C170.99604044 118.76429978 170.99208089 119.52859957 170.98800135 120.31605995 C170.7553426 165.61780477 170.60610085 210.91916633 170.565137 256.22151082 C170.56014599 261.66134645 170.55445826 267.10118115 170.54833984 272.54101562 C170.54653032 274.16547071 170.54653032 274.16547071 170.54468423 275.82274307 C170.52349114 293.35676195 170.44586094 310.89009961 170.34736067 328.42383514 C170.24754149 346.41605179 170.20840148 364.40766319 170.22555113 382.40015233 C170.23422194 393.50248348 170.19560628 404.60258016 170.09643197 415.70448036 C170.03295202 423.31827357 170.02843247 430.93068266 170.07014775 438.54462044 C170.09248145 442.93814683 170.08894688 447.32761543 170.01533699 451.7206707 C168.9460706 468.24046951 168.9460706 468.24046951 173.59075356 483.36550951 C177.28594568 486.9163996 181.3277862 488.85810512 186.17676067 490.38618398 C188.52705662 491.17744012 190.38638691 492.39901819 192.375 493.86328125 C192.96941895 494.26345459 193.56383789 494.66362793 194.17626953 495.07592773 C194.77810059 495.48399658 195.37993164 495.89206543 196 496.3125 C204.33685301 501.91273538 212.72586435 507.43137498 221.125 512.9375 C221.80836426 513.38558014 222.49172852 513.83366028 223.19580078 514.2953186 C226.7217601 516.60724662 230.2480009 518.91874477 233.77441406 521.22998047 C239.856026 525.2162251 245.93500809 529.20647623 252.01409912 533.19656372 C255.34261644 535.3812197 258.67131786 537.56559516 262 539.75 C263.33333421 540.62499867 264.66666754 541.49999867 266 542.375 C266.99 543.0246875 266.99 543.0246875 268 543.6875 C270 545 272 546.3125 274 547.625 C274.65989426 548.0580545 275.31978851 548.49110901 275.99967957 548.93728638 C277.3340851 549.81299223 278.66848654 550.68870432 280.00288391 551.56442261 C283.31977927 553.74117389 286.63674374 555.9178197 289.95385742 558.09423828 C296.14968768 562.1595938 302.34483433 566.22597956 308.53762817 570.29595947 C311.4327823 572.1986006 314.32831595 574.10066371 317.22387695 576.00268555 C318.5915788 576.90132401 319.95909883 577.80023926 321.32641602 578.69946289 C323.23406316 579.95401163 325.1423616 581.20756431 327.05078125 582.4609375 C328.13012939 583.17040527 329.20947754 583.87987305 330.3215332 584.61083984 C335.19247261 587.77450965 340.09986931 590.88173501 345 594 C345 470.91 345 347.82 345 221 C347.86938065 222.43469032 350.11774156 223.69869777 352.66015625 225.546875 C353.36132568 226.05468506 354.06249512 226.56249512 354.78491211 227.08569336 C355.53651611 227.63491455 356.28812012 228.18413574 357.0625 228.75 C357.85470947 229.32564697 358.64691895 229.90129395 359.46313477 230.49438477 C367.53843129 236.37115461 375.57659596 242.29854317 383.60888672 248.23388672 C387.56991162 251.15956103 391.53515717 254.07950306 395.5 257 C397.08335379 258.1666389 398.66668712 259.33330558 400.25 260.5 C401.03375 261.0775 401.8175 261.655 402.625 262.25 C466.75 309.5 466.75 309.5 469.12695312 311.25146484 C470.70374329 312.41329315 472.28056599 313.5750773 473.85742188 314.73681641 C478.75095622 318.34220575 483.64338253 321.94909049 488.53442383 325.55786133 C490.15813408 326.75454173 491.78294469 327.94973076 493.40893555 329.14331055 C496.76870754 331.60987573 500.12143922 334.08058941 503.42578125 336.62109375 C504.37839844 337.34425781 505.33101562 338.06742188 506.3125 338.8125 C507.09238281 339.41707031 507.87226562 340.02164062 508.67578125 340.64453125 C511.44251295 342.25807058 513.85324265 342.54223602 517 343 C517.11248683 410.06072504 517.22373429 477.12145211 517.32835388 544.18218994 C517.32990168 545.17409294 517.33144947 546.16599594 517.33304417 547.18795661 C517.36667128 568.74265638 517.40007471 590.29735649 517.4332476 611.85205697 C517.44951602 622.42187919 517.46583388 632.99170133 517.48217773 643.56152344 C517.48380334 644.61336966 517.48542894 645.66521588 517.4871038 646.74893622 C517.53985445 680.86625574 517.59587275 714.98356894 517.65357857 749.1008804 C517.71284228 784.14943332 517.76882341 819.19798997 517.82065109 854.24655471 C517.82796637 859.19248926 517.83531934 864.13842376 517.84269524 869.08435822 C517.84414581 870.05782646 517.84559638 871.03129471 517.84709091 872.03426199 C517.8705749 887.72906052 517.8975379 903.42385124 517.92578938 919.11864183 C517.95409097 934.88226576 517.97875724 950.64589201 517.99967117 966.40952751 C518.01222091 975.78462764 518.02759946 985.15971338 518.04695946 994.53480197 C518.05960081 1000.78907733 518.06862511 1007.04335101 518.07465136 1013.29763623 C518.07819537 1016.8665252 518.08336593 1020.43539218 518.09292836 1024.00427052 C518.10317087 1027.84057491 518.10571191 1031.67686156 518.10743046 1035.51317978 C518.11166182 1036.63213091 518.11589318 1037.75108205 518.12025276 1038.9039408 C518.11943888 1039.92205568 518.11862501 1040.94017056 518.11778647 1041.98913741 C518.11919029 1042.86699636 518.12059412 1043.74485532 518.12204048 1044.64931606 C518.00514836 1046.90083482 517.63044493 1048.84132151 517 1051 C515.7934375 1051.14953125 514.586875 1051.2990625 513.34375 1051.453125 C506.14438486 1053.07354286 500.45941278 1057.61422476 494.5 1061.75 C493.18634167 1062.64573131 491.87161959 1063.53990428 490.5559082 1064.43261719 C487.78403482 1066.31510708 485.01672044 1068.20403374 482.25244141 1070.09765625 C475.9617228 1074.39997811 469.6220637 1078.62900727 463.28015137 1082.85534668 C461.88253364 1083.7867929 460.48531803 1084.71884276 459.08850098 1085.65148926 C449.02168189 1092.37269066 438.88301406 1098.96394336 428.66870117 1105.45947266 C419.73657819 1111.14546931 410.9246423 1116.9983542 402.13330078 1122.89892578 C386.13558361 1133.62639609 370.13477908 1144.35440874 354 1154.875 C353.18200928 1155.4100415 352.36401855 1155.94508301 351.52124023 1156.49633789 C346.12222284 1160 346.12222284 1160 345 1160 C345.00536975 1158.86624614 345.00536975 1158.86624614 345.01084799 1157.70958817 C345.22113022 1112.9088473 345.35321244 1068.10846063 345.38379767 1023.30721826 C345.38753797 1017.9274679 345.39193139 1012.54771826 345.39672852 1007.16796875 C345.39767256 1006.09696115 345.3986166 1005.02595355 345.39958925 1003.92249118 C345.416431 986.5825112 345.48617608 969.24312733 345.57548653 951.90338649 C345.66595514 934.11005471 345.69953907 916.31727063 345.68036038 898.52371585 C345.67031799 887.54433 345.70459821 876.56692194 345.79565156 865.5879014 C345.85384667 858.05824444 345.85676543 850.52982696 345.81635087 843.00005873 C345.79465986 838.65531352 345.79720938 834.31416984 345.86545753 829.96982765 C347.14362638 812.21198364 347.14362638 812.21198364 340.7755146 796.84153366 C337.71578564 794.47522267 334.5560277 793.00072492 330.9158994 791.74234557 C327.71653787 790.50270227 325.12410847 788.56495898 322.31640625 786.60546875 C320.64686537 785.51275431 318.97731721 784.42005069 317.30722046 783.32818604 C314.18048792 781.28395017 311.0552384 779.23744814 307.9296875 777.19140625 C307.27975327 776.76603577 306.62981903 776.34066528 305.96018982 775.90240479 C298.69860395 771.14939931 291.44286691 766.387491 284.1875 761.625 C282.84163602 760.74161493 281.49577013 759.85823278 280.14990234 758.97485352 C278.12096855 757.64312227 276.09204252 756.3113792 274.06314087 754.979599 C269.40703745 751.92335018 264.75050809 748.8677512 260.09375 745.8125 C249.13593022 738.6229718 238.17845866 731.43292496 227.2265625 724.234375 C226.48213394 723.74508514 225.73770538 723.25579529 224.97071838 722.75167847 C221.43557549 720.42805708 217.90060739 718.10417057 214.3659668 715.77978516 C204.88855037 709.54879511 195.40253701 703.33097308 185.91479492 697.11572266 C184.56032772 696.22838286 183.20586348 695.34103853 181.85140228 694.45368958 C178.5676357 692.30240753 175.2838291 690.1511866 172 688 C172.00357984 689.2509728 172.00715967 690.50194561 172.01084799 691.79082668 C172.16762462 746.92078352 172.30581437 802.05076306 172.34913635 857.18093872 C172.35012803 858.43282941 172.35012803 858.43282941 172.35113974 859.71001082 C172.36539597 877.84781667 172.37631552 895.9856231 172.38379767 914.12343299 C172.38748721 923.01816138 172.3919141 931.91288934 172.39672852 940.80761719 C172.39742833 942.13531838 172.39742833 942.13531838 172.39814228 943.48984181 C172.41361102 972.18168468 172.47777312 1000.87316765 172.56717696 1029.5648674 C172.65879114 1059.04842463 172.70129995 1088.53165442 172.68198875 1118.01535763 C172.67928435 1122.17933739 172.67714152 1126.34331727 172.67534065 1130.50729752 C172.67478294 1131.73659852 172.67478294 1131.73659852 172.67421397 1132.99073389 C172.66967232 1146.18523653 172.71692168 1159.3790703 172.78352317 1172.57338447 C172.84937009 1185.83706198 172.86069216 1199.09989764 172.81635087 1212.36367242 C172.79165913 1220.24546177 172.8087792 1228.12457801 172.88580123 1236.00604352 C172.93870656 1241.89096344 172.91335253 1247.77385479 172.85755122 1253.65880562 C172.84719603 1256.03988654 172.86227278 1258.42124059 172.90520256 1260.801957 C173.19826947 1278.15620077 173.19826947 1278.15620077 169.52133627 1282.91287866 C166.00777476 1286.12310875 162.11297979 1288.26664725 157.78257299 1290.18469299 C155.35444571 1291.29526136 153.18694462 1292.7250006 150.9765625 1294.21484375 C149.5271156 1295.12411002 148.07660254 1296.03167908 146.625 1296.9375 C140.6823105 1300.66920702 134.75981797 1304.42765158 128.875 1308.25 C121.93401739 1312.75644656 114.97154529 1317.22847946 108 1321.6875 C106.94409668 1322.36288818 105.88819336 1323.03827637 104.80029297 1323.73413086 C100.43750513 1326.52411756 96.07420952 1329.31330965 91.7109375 1332.10253906 C76.5842918 1341.76834122 76.5842918 1341.76834122 61.5 1351.5 C53.63078832 1356.60377899 45.73345414 1361.66320699 37.82958984 1366.71313477 C32.78498121 1369.93627086 27.74265261 1373.16268187 22.7119751 1376.40751648 C20.97008471 1377.53089887 19.22735669 1378.65296994 17.484375 1379.7746582 C15.28218452 1381.19247837 13.0816028 1382.61280112 10.8828125 1384.03588867 C9.8928125 1384.67244385 8.9028125 1385.30899902 7.8828125 1385.96484375 C7.01027832 1386.5280835 6.13774414 1387.09132324 5.23876953 1387.67163086 C3 1389 3 1389 0 1390 C0 931.3 0 472.6 0 0 Z " fill="#7A6200" transform="translate(1024,305)"/>
<path d="M0 0 C0 82.10757962 0 164.21515923 0 575 C-1.59106445 576.45361328 -1.59106445 576.45361328 -3.86328125 577.8203125 C-4.71712402 578.34657227 -5.5709668 578.87283203 -6.45068359 579.41503906 C-7.39508301 579.97932617 -8.33948242 580.54361328 -9.3125 581.125 C-11.33392998 582.36931655 -13.35337203 583.61686679 -15.37109375 584.8671875 C-16.4472998 585.53202148 -17.52350586 586.19685547 -18.63232422 586.88183594 C-23.87005974 590.17620983 -29.00141303 593.62445809 -34.13449097 597.07879639 C-42.55286527 602.74359342 -50.99907126 608.3410859 -59.63916016 613.66381836 C-64.53347792 616.68439744 -69.32124509 619.84462166 -74.09472656 623.05200195 C-79.19930299 626.47813561 -84.34225503 629.84200387 -89.5 633.1875 C-90.33845459 633.73140381 -91.17690918 634.27530762 -92.04077148 634.83569336 C-93.79066306 635.97074482 -95.54058227 637.10575368 -97.29052734 638.24072266 C-101.96905684 641.27852077 -106.64070064 644.32686576 -111.3125 647.375 C-112.27003174 647.99963135 -113.22756348 648.6242627 -114.21411133 649.26782227 C-117.14283072 651.17841052 -120.07143409 653.08917649 -123 655 C-126.89570655 657.54186107 -130.79155198 660.08350906 -134.6875 662.625 C-135.64229248 663.24802002 -136.59708496 663.87104004 -137.58081055 664.51293945 C-142.10075244 667.46129789 -146.62301361 670.40592465 -151.15234375 673.33984375 C-160.03147196 679.09259147 -168.8806603 684.88701543 -177.6875 690.75 C-178.60354004 691.3591626 -179.51958008 691.9683252 -180.46337891 692.59594727 C-181.30433105 693.15725342 -182.1452832 693.71855957 -183.01171875 694.296875 C-183.75897217 694.79541992 -184.50622559 695.29396484 -185.27612305 695.80761719 C-186.94682412 696.88705794 -186.94682412 696.88705794 -188 698 C-187.44352783 698.35078613 -186.88705566 698.70157227 -186.3137207 699.06298828 C-175.31309872 706.0068427 -164.37719872 713.02973102 -153.57202148 720.27416992 C-145.70474595 725.54409126 -137.79463752 730.74678661 -129.875 735.9375 C-129.20124329 736.37917511 -128.52748657 736.82085022 -127.83331299 737.27590942 C-125.04261618 739.10531848 -122.25187243 740.93465584 -119.46096802 742.76374817 C-112.20431701 747.52011855 -104.95359223 752.28549103 -97.70333862 757.05160522 C-84.43512771 765.77364512 -71.16350995 774.49047745 -57.88720703 783.20019531 C-56.57975082 784.05793999 -55.27229639 784.91568739 -53.96484375 785.7734375 C-53.31795593 786.19782104 -52.67106812 786.62220459 -52.00457764 787.05944824 C-47.85317209 789.78323448 -43.70288375 792.50871537 -39.55332947 795.23532104 C-36.68375569 797.1208229 -33.81385516 799.00582712 -30.94393921 800.89080811 C-29.59549172 801.77667217 -28.24719721 802.66276916 -26.89907837 803.5491333 C-25.01386364 804.78859761 -23.12807552 806.02718545 -21.2421875 807.265625 C-19.56763637 808.36609505 -17.89513165 809.47070874 -16.25469792 810.62141854 C-13.88232306 812.14962039 -13.88232306 812.14962039 -10.6042031 813.42676443 C-5.81909823 815.61066208 -1.13592172 817.99511649 0.81217465 823.1484669 C2.15629329 829.9110551 1.81515411 836.82512879 1.68356323 843.68373108 C1.68966951 846.03853307 1.70192997 848.39332579 1.71981156 850.7480678 C1.74784281 856.53866416 1.71084277 862.32629622 1.6464421 868.11654226 C1.57300331 875.05325871 1.58127236 881.98926844 1.59246449 888.9262789 C1.61084406 901.72730537 1.5641397 914.52731891 1.48022079 927.32805061 C1.39735554 940.00057044 1.34349254 952.67266829 1.3282814 965.34545708 C1.32731905 966.13366974 1.32635669 966.9218824 1.32536518 967.73398029 C1.32062845 971.73698484 1.3164091 975.73998975 1.31238891 979.74299508 C1.28299022 1008.08961129 1.1886879 1036.43567653 1.05615234 1064.78198242 C0.92755212 1092.31841097 0.82839079 1119.8546887 0.76904297 1147.39135742 C0.7672016 1148.2402915 0.76536024 1149.08922558 0.76346307 1149.96388493 C0.74500364 1158.4893018 0.72714227 1167.01471983 0.70971904 1175.54013887 C0.67421293 1192.90709261 0.63471541 1210.27403653 0.59280396 1227.64097595 C0.5908819 1228.43946354 0.58895984 1229.23795113 0.58697953 1230.06063531 C0.45819013 1283.37398858 0.23606824 1336.68702692 0 1390 C-1.41210508 1389.22633152 -2.82286549 1388.45020852 -4.233078 1387.6730957 C-5.01884311 1387.24116409 -5.80460821 1386.80923248 -6.61418438 1386.36421204 C-10.4557665 1384.16759109 -14.08862229 1381.68598018 -17.73828125 1379.1875 C-18.55967087 1378.63018188 -19.38106049 1378.07286377 -20.2273407 1377.49865723 C-21.99818294 1376.29704639 -23.76799461 1375.09391562 -25.53686523 1373.8894043 C-30.34758174 1370.61469808 -35.16740809 1367.35347938 -39.98828125 1364.09375 C-40.98425323 1363.42025513 -41.98022522 1362.74676025 -43.00637817 1362.05285645 C-53.28134022 1355.11610844 -63.63555826 1348.30199918 -74 1341.5 C-88.92155289 1331.70250424 -103.77242752 1321.8073933 -118.5625 1311.8125 C-120.36407155 1310.59599383 -122.16566625 1309.37952197 -123.96728516 1308.16308594 C-131.15125132 1303.31094737 -138.33254525 1298.45499697 -145.50309753 1293.58305359 C-148.04591288 1291.85767826 -150.59293672 1290.1386061 -153.1413269 1288.42147827 C-154.81506515 1287.2904992 -156.48296672 1286.15089716 -158.15063477 1285.01098633 C-159.12959717 1284.35251709 -160.10855957 1283.69404785 -161.1171875 1283.015625 C-161.94847168 1282.45133789 -162.77975586 1281.88705078 -163.63623047 1281.30566406 C-166.13109034 1279.92759026 -168.21409635 1279.49552717 -171 1279 C-170.99414184 1278.23510313 -170.98828369 1277.47020626 -170.98224801 1276.68213069 C-170.63751916 1231.32183793 -170.40261483 1185.9621116 -170.30981035 1140.60056823 C-170.29856615 1135.15086521 -170.28640679 1129.70116459 -170.27368164 1124.25146484 C-170.27116374 1123.16655341 -170.26864583 1122.08164198 -170.26605163 1120.96385445 C-170.22312995 1103.40962143 -170.10611882 1085.8566276 -169.96159669 1068.30297063 C-169.81489433 1050.28360143 -169.74811206 1032.26520592 -169.75510865 1014.24523461 C-169.75691751 1003.12992847 -169.69682246 992.01852984 -169.55684964 980.90409006 C-169.46676862 973.27648392 -169.4545094 965.65119072 -169.50264087 958.02321528 C-169.52812512 953.62400571 -169.52008159 949.23180915 -169.41930962 944.83352661 C-168.40026795 927.72168194 -168.40026795 927.72168194 -174.04261994 912.26026964 C-178.91070474 907.732184 -184.32219955 904.82519742 -190.38741648 902.19940591 C-194.38085032 900.3660681 -197.88179697 897.91473495 -201.4765625 895.41015625 C-202.81847998 894.52357318 -204.16259238 893.64029505 -205.50976562 892.76171875 C-206.51390503 892.10308838 -206.51390503 892.10308838 -207.53833008 891.43115234 C-208.22693115 890.97949707 -208.91553223 890.5278418 -209.625 890.0625 C-211.12440054 889.07820358 -212.62374803 888.09382633 -214.12304688 887.109375 C-217.21496772 885.0792826 -220.30710841 883.04952572 -223.39941406 881.02001953 C-230.04365075 876.65896123 -236.68506156 872.29360351 -243.32659912 867.92843628 C-246.9676087 865.53543542 -250.60881459 863.14273331 -254.25 860.75 C-255.70833427 859.79166809 -257.1666676 858.83333475 -258.625 857.875 C-259.7078125 857.1634375 -259.7078125 857.1634375 -260.8125 856.4375 C-263 855 -265.1875 853.5625 -267.375 852.125 C-268.09676926 851.6506955 -268.81853851 851.17639099 -269.56217957 850.68771362 C-271.02158475 849.7286739 -272.48098619 848.76962848 -273.94038391 847.81057739 C-277.56978742 845.42550539 -281.19925431 843.04052995 -284.82885742 840.65576172 C-291.58695862 836.2153233 -298.34445049 831.77396637 -305.09976196 827.32928467 C-308.24725592 825.25846231 -311.39510008 823.18817262 -314.54296875 821.11791992 C-316.02540171 820.14276098 -317.5076682 819.1673489 -318.98974609 818.19165039 C-321.06173521 816.82761879 -323.13432934 815.46451065 -325.20703125 814.1015625 C-326.08020744 813.52621262 -326.08020744 813.52621262 -326.97102356 812.9392395 C-333.61434997 808.57345436 -340.31186677 804.29951422 -347 800 C-347 920.12 -347 1040.24 -347 1164 C-354.36008093 1159.31631213 -361.56704808 1154.57981172 -368.6875 1149.5625 C-377.92128263 1143.09184533 -387.24833416 1136.77911597 -396.66674805 1130.58032227 C-401.33928961 1127.49323021 -405.93901626 1124.34655105 -410.453125 1121.03125 C-416.17857809 1116.82837201 -422.06804692 1112.9038046 -428 1109 C-434.85716729 1104.48731407 -441.59708916 1099.87744137 -448.21337891 1095.01806641 C-453.126326 1091.46011821 -458.16102388 1088.08218578 -463.1875 1084.6875 C-465.40288481 1083.18699581 -467.61740064 1081.68521077 -469.83203125 1080.18359375 C-470.89373535 1079.46413574 -471.95543945 1078.74467773 -473.04931641 1078.00341797 C-476.83455727 1075.43336282 -480.60671788 1072.84481941 -484.375 1070.25 C-485.29188599 1069.62315308 -485.29188599 1069.62315308 -486.22729492 1068.98364258 C-489.82077064 1066.52301091 -493.37668254 1064.01730511 -496.9140625 1061.4765625 C-498.1817749 1060.5788916 -498.1817749 1060.5788916 -499.47509766 1059.66308594 C-501.11129937 1058.50436022 -502.73921008 1057.33380082 -504.35693359 1056.14941406 C-505.10539551 1055.6231543 -505.85385742 1055.09689453 -506.625 1054.5546875 C-507.60339844 1053.85061768 -507.60339844 1053.85061768 -508.6015625 1053.13232422 C-511.77646532 1051.48116931 -511.77646532 1051.48116931 -519 1051 C-519 817.03 -519 583.06 -519 342 C-516.36 341.67 -513.72 341.34 -511 341 C-508.68376219 339.95737968 -508.68376219 339.95737968 -506.84375 338.4453125 C-505.78788696 337.6553186 -505.78788696 337.6553186 -504.71069336 336.84936523 C-503.98116455 336.28032471 -503.25163574 335.71128418 -502.5 335.125 C-500.90879311 333.92933623 -499.31632103 332.73535451 -497.72265625 331.54296875 C-496.53373779 330.64457275 -496.53373779 330.64457275 -495.32080078 329.72802734 C-491.9252592 327.19976695 -488.44076082 324.81310363 -484.9375 322.4375 C-477.27557825 317.20953281 -469.69643509 311.86935365 -462.12792969 306.50732422 C-458.64985459 304.04362118 -455.1690515 301.58378722 -451.6875 299.125 C-450.99406494 298.63523682 -450.30062988 298.14547363 -449.58618164 297.64086914 C-443.21739561 293.14641109 -436.83028128 288.67830874 -430.44213867 284.21142578 C-425.11867389 280.48751174 -419.8047925 276.75045821 -414.5 273 C-408.34567055 268.64892398 -402.17680583 264.31910656 -396 260 C-389.76190483 255.63757049 -383.5302713 251.26635523 -377.3125 246.875 C-376.63155273 246.39426025 -375.95060547 245.91352051 -375.24902344 245.41821289 C-371.60926934 242.84732345 -367.97307538 240.27150543 -364.33984375 237.69140625 C-363.5718042 237.14693848 -362.80376465 236.6024707 -362.01245117 236.04150391 C-360.54669405 235.00233003 -359.08194701 233.96172936 -357.6184082 232.91943359 C-356.95542725 232.44973145 -356.29244629 231.9800293 -355.609375 231.49609375 C-355.03155273 231.08544678 -354.45373047 230.6747998 -353.85839844 230.25170898 C-351.62746338 228.74908102 -349.30647459 227.38388475 -347 226 C-346.67 347.44 -346.34 468.88 -346 594 C-342.37 591.69 -338.74 589.38 -335 587 C-333.23140625 585.87980469 -331.4628125 584.75960937 -329.640625 583.60546875 C-320.90468708 578.06972197 -312.18842223 572.51673607 -303.60449219 566.74755859 C-296.03110063 561.6623323 -288.36276874 556.72300664 -280.70947266 551.75927734 C-276.0309432 548.72147925 -271.35929161 545.67314607 -266.6875 542.625 C-265.72779297 541.99891846 -264.76808594 541.37283691 -263.77929688 540.7277832 C-261.8272807 539.45431106 -259.87529511 538.18079205 -257.92333984 536.90722656 C-253.11598018 533.77083992 -248.30795197 530.63547855 -243.5 527.5 C-242.54931641 526.87996094 -241.59863281 526.25992188 -240.61914062 525.62109375 C-235.86489334 522.52035755 -231.11041933 519.41997011 -226.35546875 516.3203125 C-224.46613268 515.08856184 -222.57680979 513.85679096 -220.6875 512.625 C-219.75518555 512.01720703 -218.82287109 511.40941406 -217.86230469 510.78320312 C-212.62520116 507.36793357 -207.39106332 503.94818644 -202.16015625 500.5234375 C-200.99715221 499.76220624 -199.83414765 499.00097577 -198.67114258 498.23974609 C-196.4608213 496.79294919 -194.25111625 495.34522604 -192.04174805 493.89697266 C-190.51287964 492.89609619 -190.51287964 492.89609619 -188.953125 491.875 C-187.62522949 491.00488281 -187.62522949 491.00488281 -186.27050781 490.1171875 C-183 488 -183 488 -180.31699926 486.77519226 C-175.89012031 484.52815222 -172.61060377 482.8539197 -171.00450742 477.97747803 C-170.65786771 474.09440782 -170.66398089 470.2910858 -170.78727722 466.40234375 C-170.79410754 464.90145475 -170.79602331 463.40053672 -170.79345971 461.89963436 C-170.80021962 457.78128738 -170.8752675 453.66658523 -170.96123421 449.54923511 C-171.0417176 445.10623934 -171.05799934 440.66297413 -171.08120728 436.21937561 C-171.1292465 428.51959834 -171.2150888 420.82099781 -171.32420921 413.12185669 C-171.48021598 401.97396619 -171.55446239 390.82661651 -171.60456804 379.67779982 C-171.6861225 361.56860667 -171.80063135 343.45982263 -171.95141602 325.35107422 C-171.96041675 324.26739299 -171.96941748 323.18371177 -171.97869096 322.06719172 C-172.10786388 306.70060766 -172.26990699 291.3345445 -172.4452847 275.96842694 C-172.45762054 274.88717125 -172.46995637 273.80591555 -172.48266602 272.69189453 C-172.49500785 271.61196126 -172.50734968 270.53202798 -172.52006551 269.41936946 C-172.72392376 251.38761863 -172.8424668 233.35649506 -172.89160615 215.32366371 C-172.92530555 204.20794966 -173.03033052 193.09746285 -173.22817842 181.98343664 C-173.35827113 174.35993786 -173.40823959 166.73854307 -173.39621534 159.11395448 C-173.39187909 154.71803901 -173.42294976 150.33009663 -173.55185509 145.93589973 C-174.26897524 120.3585498 -174.26897524 120.3585498 -168.88063645 113.1742363 C-163.78679538 108.40991323 -158.10552703 105.27263868 -151.80476344 102.3749218 C-147.31731287 100.17513071 -143.36139773 97.28293061 -139.3125 94.375 C-137.75888434 93.30643609 -136.20317732 92.24090044 -134.64453125 91.1796875 C-133.49718506 90.39416504 -133.49718506 90.39416504 -132.32666016 89.59277344 C-128.38497795 86.89439623 -124.4424411 84.19726826 -120.5 81.5 C-118.91666268 80.4166725 -117.33332934 79.33333917 -115.75 78.25 C-93.58333333 63.08333333 -71.41666667 47.91666667 -49.25 32.75 C-48.0738916 31.94526245 -48.0738916 31.94526245 -46.87402344 31.12426758 C-45.29402518 30.0432589 -43.71394732 28.96236657 -42.13378906 27.8815918 C-38.12376118 25.13865005 -34.11522769 22.39356761 -30.109375 19.64453125 C-22.55242344 14.46074354 -14.98732523 9.28975047 -7.375 4.1875 C-6.74110352 3.76057861 -6.10720703 3.33365723 -5.45410156 2.89379883 C-1.11795809 0 -1.11795809 0 0 0 Z " fill="#020C45" transform="translate(977,305)"/>
</svg>
